<mxfile host="app.diagrams.net" agent="Mozilla/5.0 (Windows NT 10.0; Win64; x64) AppleWebKit/537.36 (KHTML, like Gecko) Chrome/128.0.0.0 Safari/537.36 Edg/128.0.0.0" version="24.7.7">
  <diagram id="C5RBs43oDa-KdzZeNtuy" name="Page-1">
    <mxGraphModel dx="1215" dy="687" grid="1" gridSize="10" guides="1" tooltips="1" connect="1" arrows="1" fold="1" page="1" pageScale="1" pageWidth="827" pageHeight="1169" math="0" shadow="0">
      <root>
        <mxCell id="WIyWlLk6GJQsqaUBKTNV-0" />
        <mxCell id="WIyWlLk6GJQsqaUBKTNV-1" parent="WIyWlLk6GJQsqaUBKTNV-0" />
        <mxCell id="ofGlkTPYYoUnQtu4ZhYv-7" value="" style="edgeStyle=orthogonalEdgeStyle;rounded=0;orthogonalLoop=1;jettySize=auto;html=1;exitX=0.5;exitY=1;exitDx=0;exitDy=0;" edge="1" parent="WIyWlLk6GJQsqaUBKTNV-1" source="ofGlkTPYYoUnQtu4ZhYv-70" target="ofGlkTPYYoUnQtu4ZhYv-6">
          <mxGeometry relative="1" as="geometry">
            <mxPoint x="220" y="80" as="sourcePoint" />
          </mxGeometry>
        </mxCell>
        <mxCell id="ofGlkTPYYoUnQtu4ZhYv-9" value="" style="edgeStyle=orthogonalEdgeStyle;rounded=0;orthogonalLoop=1;jettySize=auto;html=1;entryX=1;entryY=0.5;entryDx=0;entryDy=0;" edge="1" parent="WIyWlLk6GJQsqaUBKTNV-1" source="ofGlkTPYYoUnQtu4ZhYv-6" target="ofGlkTPYYoUnQtu4ZhYv-41">
          <mxGeometry relative="1" as="geometry">
            <mxPoint x="60" y="180" as="targetPoint" />
          </mxGeometry>
        </mxCell>
        <mxCell id="ofGlkTPYYoUnQtu4ZhYv-10" value="Yes" style="edgeLabel;html=1;align=center;verticalAlign=middle;resizable=0;points=[];" vertex="1" connectable="0" parent="ofGlkTPYYoUnQtu4ZhYv-9">
          <mxGeometry x="0.0833" y="1" relative="1" as="geometry">
            <mxPoint as="offset" />
          </mxGeometry>
        </mxCell>
        <mxCell id="ofGlkTPYYoUnQtu4ZhYv-44" style="edgeStyle=orthogonalEdgeStyle;rounded=0;orthogonalLoop=1;jettySize=auto;html=1;exitX=0.5;exitY=1;exitDx=0;exitDy=0;entryX=0.5;entryY=0;entryDx=0;entryDy=0;" edge="1" parent="WIyWlLk6GJQsqaUBKTNV-1" source="ofGlkTPYYoUnQtu4ZhYv-6" target="ofGlkTPYYoUnQtu4ZhYv-43">
          <mxGeometry relative="1" as="geometry" />
        </mxCell>
        <mxCell id="ofGlkTPYYoUnQtu4ZhYv-45" value="No" style="edgeLabel;html=1;align=center;verticalAlign=middle;resizable=0;points=[];" vertex="1" connectable="0" parent="ofGlkTPYYoUnQtu4ZhYv-44">
          <mxGeometry x="-0.0833" y="-1" relative="1" as="geometry">
            <mxPoint as="offset" />
          </mxGeometry>
        </mxCell>
        <mxCell id="ofGlkTPYYoUnQtu4ZhYv-6" value="Session processed before?" style="rhombus;whiteSpace=wrap;html=1;rounded=1;glass=0;strokeWidth=1;shadow=0;" vertex="1" parent="WIyWlLk6GJQsqaUBKTNV-1">
          <mxGeometry x="180" y="140" width="80" height="80" as="geometry" />
        </mxCell>
        <mxCell id="ofGlkTPYYoUnQtu4ZhYv-29" value="" style="edgeStyle=orthogonalEdgeStyle;rounded=0;orthogonalLoop=1;jettySize=auto;html=1;" edge="1" parent="WIyWlLk6GJQsqaUBKTNV-1" source="ofGlkTPYYoUnQtu4ZhYv-11" target="ofGlkTPYYoUnQtu4ZhYv-28">
          <mxGeometry relative="1" as="geometry" />
        </mxCell>
        <mxCell id="ofGlkTPYYoUnQtu4ZhYv-31" value="Yes" style="edgeLabel;html=1;align=center;verticalAlign=middle;resizable=0;points=[];" vertex="1" connectable="0" parent="ofGlkTPYYoUnQtu4ZhYv-29">
          <mxGeometry x="-0.0615" y="2" relative="1" as="geometry">
            <mxPoint as="offset" />
          </mxGeometry>
        </mxCell>
        <mxCell id="ofGlkTPYYoUnQtu4ZhYv-33" value="" style="edgeStyle=orthogonalEdgeStyle;rounded=0;orthogonalLoop=1;jettySize=auto;html=1;" edge="1" parent="WIyWlLk6GJQsqaUBKTNV-1" source="ofGlkTPYYoUnQtu4ZhYv-11" target="ofGlkTPYYoUnQtu4ZhYv-47">
          <mxGeometry relative="1" as="geometry" />
        </mxCell>
        <mxCell id="ofGlkTPYYoUnQtu4ZhYv-34" value="No" style="edgeLabel;html=1;align=center;verticalAlign=middle;resizable=0;points=[];" vertex="1" connectable="0" parent="ofGlkTPYYoUnQtu4ZhYv-33">
          <mxGeometry x="-0.3333" y="2" relative="1" as="geometry">
            <mxPoint as="offset" />
          </mxGeometry>
        </mxCell>
        <mxCell id="ofGlkTPYYoUnQtu4ZhYv-11" value="Data in cache?" style="rhombus;whiteSpace=wrap;html=1;rounded=1;glass=0;strokeWidth=1;shadow=0;" vertex="1" parent="WIyWlLk6GJQsqaUBKTNV-1">
          <mxGeometry x="180" y="330" width="80" height="80" as="geometry" />
        </mxCell>
        <mxCell id="ofGlkTPYYoUnQtu4ZhYv-51" style="edgeStyle=orthogonalEdgeStyle;rounded=0;orthogonalLoop=1;jettySize=auto;html=1;" edge="1" parent="WIyWlLk6GJQsqaUBKTNV-1" source="ofGlkTPYYoUnQtu4ZhYv-28" target="ofGlkTPYYoUnQtu4ZhYv-50">
          <mxGeometry relative="1" as="geometry" />
        </mxCell>
        <mxCell id="ofGlkTPYYoUnQtu4ZhYv-28" value="Use data from cache" style="whiteSpace=wrap;html=1;rounded=1;glass=0;strokeWidth=1;shadow=0;" vertex="1" parent="WIyWlLk6GJQsqaUBKTNV-1">
          <mxGeometry x="360" y="350" width="120" height="40" as="geometry" />
        </mxCell>
        <mxCell id="ofGlkTPYYoUnQtu4ZhYv-36" value="" style="edgeStyle=orthogonalEdgeStyle;rounded=0;orthogonalLoop=1;jettySize=auto;html=1;" edge="1" parent="WIyWlLk6GJQsqaUBKTNV-1" source="ofGlkTPYYoUnQtu4ZhYv-32" target="ofGlkTPYYoUnQtu4ZhYv-35">
          <mxGeometry relative="1" as="geometry" />
        </mxCell>
        <mxCell id="ofGlkTPYYoUnQtu4ZhYv-37" value="Yes" style="edgeLabel;html=1;align=center;verticalAlign=middle;resizable=0;points=[];" vertex="1" connectable="0" parent="ofGlkTPYYoUnQtu4ZhYv-36">
          <mxGeometry x="-0.125" y="-2" relative="1" as="geometry">
            <mxPoint as="offset" />
          </mxGeometry>
        </mxCell>
        <mxCell id="ofGlkTPYYoUnQtu4ZhYv-66" style="edgeStyle=orthogonalEdgeStyle;rounded=0;orthogonalLoop=1;jettySize=auto;html=1;exitX=0.5;exitY=1;exitDx=0;exitDy=0;entryX=0.5;entryY=0;entryDx=0;entryDy=0;" edge="1" parent="WIyWlLk6GJQsqaUBKTNV-1" source="ofGlkTPYYoUnQtu4ZhYv-32" target="ofGlkTPYYoUnQtu4ZhYv-52">
          <mxGeometry relative="1" as="geometry" />
        </mxCell>
        <mxCell id="ofGlkTPYYoUnQtu4ZhYv-67" value="No" style="edgeLabel;html=1;align=center;verticalAlign=middle;resizable=0;points=[];" vertex="1" connectable="0" parent="ofGlkTPYYoUnQtu4ZhYv-66">
          <mxGeometry x="-0.52" y="-1" relative="1" as="geometry">
            <mxPoint as="offset" />
          </mxGeometry>
        </mxCell>
        <mxCell id="ofGlkTPYYoUnQtu4ZhYv-32" value="Data in SQL?" style="rhombus;whiteSpace=wrap;html=1;rounded=1;glass=0;strokeWidth=1;shadow=0;" vertex="1" parent="WIyWlLk6GJQsqaUBKTNV-1">
          <mxGeometry x="180" y="520" width="80" height="80" as="geometry" />
        </mxCell>
        <mxCell id="ofGlkTPYYoUnQtu4ZhYv-53" value="" style="edgeStyle=orthogonalEdgeStyle;rounded=0;orthogonalLoop=1;jettySize=auto;html=1;" edge="1" parent="WIyWlLk6GJQsqaUBKTNV-1" source="ofGlkTPYYoUnQtu4ZhYv-35" target="ofGlkTPYYoUnQtu4ZhYv-52">
          <mxGeometry relative="1" as="geometry">
            <Array as="points">
              <mxPoint x="414" y="630" />
              <mxPoint x="220" y="630" />
            </Array>
          </mxGeometry>
        </mxCell>
        <mxCell id="ofGlkTPYYoUnQtu4ZhYv-54" value="Yes" style="edgeLabel;html=1;align=center;verticalAlign=middle;resizable=0;points=[];" vertex="1" connectable="0" parent="ofGlkTPYYoUnQtu4ZhYv-53">
          <mxGeometry x="-0.0333" y="1" relative="1" as="geometry">
            <mxPoint as="offset" />
          </mxGeometry>
        </mxCell>
        <mxCell id="ofGlkTPYYoUnQtu4ZhYv-57" style="edgeStyle=orthogonalEdgeStyle;rounded=0;orthogonalLoop=1;jettySize=auto;html=1;exitX=0.5;exitY=0;exitDx=0;exitDy=0;entryX=0.5;entryY=1;entryDx=0;entryDy=0;" edge="1" parent="WIyWlLk6GJQsqaUBKTNV-1" source="ofGlkTPYYoUnQtu4ZhYv-35" target="ofGlkTPYYoUnQtu4ZhYv-56">
          <mxGeometry relative="1" as="geometry" />
        </mxCell>
        <mxCell id="ofGlkTPYYoUnQtu4ZhYv-58" value="No" style="edgeLabel;html=1;align=center;verticalAlign=middle;resizable=0;points=[];" vertex="1" connectable="0" parent="ofGlkTPYYoUnQtu4ZhYv-57">
          <mxGeometry x="0.1667" y="1" relative="1" as="geometry">
            <mxPoint as="offset" />
          </mxGeometry>
        </mxCell>
        <mxCell id="ofGlkTPYYoUnQtu4ZhYv-35" value="Data older than 90d?" style="rhombus;whiteSpace=wrap;html=1;rounded=1;glass=0;strokeWidth=1;shadow=0;" vertex="1" parent="WIyWlLk6GJQsqaUBKTNV-1">
          <mxGeometry x="374" y="520" width="80" height="80" as="geometry" />
        </mxCell>
        <mxCell id="ofGlkTPYYoUnQtu4ZhYv-65" style="edgeStyle=orthogonalEdgeStyle;rounded=0;orthogonalLoop=1;jettySize=auto;html=1;entryX=0.5;entryY=0;entryDx=0;entryDy=0;exitX=1;exitY=0.5;exitDx=0;exitDy=0;" edge="1" parent="WIyWlLk6GJQsqaUBKTNV-1" source="ofGlkTPYYoUnQtu4ZhYv-68" target="ofGlkTPYYoUnQtu4ZhYv-50">
          <mxGeometry relative="1" as="geometry">
            <Array as="points">
              <mxPoint x="540" y="785" />
              <mxPoint x="540" y="710" />
              <mxPoint x="660" y="710" />
            </Array>
          </mxGeometry>
        </mxCell>
        <mxCell id="ofGlkTPYYoUnQtu4ZhYv-69" style="edgeStyle=orthogonalEdgeStyle;rounded=0;orthogonalLoop=1;jettySize=auto;html=1;exitX=1;exitY=0.5;exitDx=0;exitDy=0;entryX=0;entryY=0.5;entryDx=0;entryDy=0;" edge="1" parent="WIyWlLk6GJQsqaUBKTNV-1" source="ofGlkTPYYoUnQtu4ZhYv-38" target="ofGlkTPYYoUnQtu4ZhYv-68">
          <mxGeometry relative="1" as="geometry" />
        </mxCell>
        <mxCell id="ofGlkTPYYoUnQtu4ZhYv-38" value="Insert data in SQL" style="whiteSpace=wrap;html=1;rounded=1;glass=0;strokeWidth=1;shadow=0;" vertex="1" parent="WIyWlLk6GJQsqaUBKTNV-1">
          <mxGeometry x="160" y="760" width="120" height="50" as="geometry" />
        </mxCell>
        <mxCell id="ofGlkTPYYoUnQtu4ZhYv-41" value="STOP" style="shape=hexagon;perimeter=hexagonPerimeter2;whiteSpace=wrap;html=1;fixedSize=1;" vertex="1" parent="WIyWlLk6GJQsqaUBKTNV-1">
          <mxGeometry x="30" y="165" width="80" height="30" as="geometry" />
        </mxCell>
        <mxCell id="ofGlkTPYYoUnQtu4ZhYv-46" style="edgeStyle=orthogonalEdgeStyle;rounded=0;orthogonalLoop=1;jettySize=auto;html=1;" edge="1" parent="WIyWlLk6GJQsqaUBKTNV-1" source="ofGlkTPYYoUnQtu4ZhYv-43" target="ofGlkTPYYoUnQtu4ZhYv-11">
          <mxGeometry relative="1" as="geometry" />
        </mxCell>
        <mxCell id="ofGlkTPYYoUnQtu4ZhYv-43" value="Check cache" style="rounded=1;whiteSpace=wrap;html=1;fontSize=12;glass=0;strokeWidth=1;shadow=0;" vertex="1" parent="WIyWlLk6GJQsqaUBKTNV-1">
          <mxGeometry x="160" y="260" width="120" height="40" as="geometry" />
        </mxCell>
        <mxCell id="ofGlkTPYYoUnQtu4ZhYv-48" style="edgeStyle=orthogonalEdgeStyle;rounded=0;orthogonalLoop=1;jettySize=auto;html=1;" edge="1" parent="WIyWlLk6GJQsqaUBKTNV-1" source="ofGlkTPYYoUnQtu4ZhYv-47" target="ofGlkTPYYoUnQtu4ZhYv-32">
          <mxGeometry relative="1" as="geometry" />
        </mxCell>
        <mxCell id="ofGlkTPYYoUnQtu4ZhYv-47" value="Check SQL" style="rounded=1;whiteSpace=wrap;html=1;fontSize=12;glass=0;strokeWidth=1;shadow=0;" vertex="1" parent="WIyWlLk6GJQsqaUBKTNV-1">
          <mxGeometry x="160" y="450" width="120" height="40" as="geometry" />
        </mxCell>
        <mxCell id="ofGlkTPYYoUnQtu4ZhYv-50" value="Continue process" style="rounded=0;whiteSpace=wrap;html=1;fontStyle=0" vertex="1" parent="WIyWlLk6GJQsqaUBKTNV-1">
          <mxGeometry x="600" y="755" width="120" height="60" as="geometry" />
        </mxCell>
        <mxCell id="ofGlkTPYYoUnQtu4ZhYv-63" style="edgeStyle=orthogonalEdgeStyle;rounded=0;orthogonalLoop=1;jettySize=auto;html=1;entryX=0.5;entryY=0;entryDx=0;entryDy=0;jumpStyle=gap;exitX=0;exitY=0.5;exitDx=0;exitDy=0;" edge="1" parent="WIyWlLk6GJQsqaUBKTNV-1" source="ofGlkTPYYoUnQtu4ZhYv-52" target="ofGlkTPYYoUnQtu4ZhYv-38">
          <mxGeometry relative="1" as="geometry">
            <Array as="points">
              <mxPoint x="220" y="665" />
            </Array>
          </mxGeometry>
        </mxCell>
        <mxCell id="ofGlkTPYYoUnQtu4ZhYv-52" value="Get new data from API" style="whiteSpace=wrap;html=1;rounded=1;glass=0;strokeWidth=1;shadow=0;" vertex="1" parent="WIyWlLk6GJQsqaUBKTNV-1">
          <mxGeometry x="160" y="660" width="120" height="50" as="geometry" />
        </mxCell>
        <mxCell id="ofGlkTPYYoUnQtu4ZhYv-59" style="edgeStyle=orthogonalEdgeStyle;rounded=0;orthogonalLoop=1;jettySize=auto;html=1;entryX=0.5;entryY=0;entryDx=0;entryDy=0;" edge="1" parent="WIyWlLk6GJQsqaUBKTNV-1" source="ofGlkTPYYoUnQtu4ZhYv-56" target="ofGlkTPYYoUnQtu4ZhYv-50">
          <mxGeometry relative="1" as="geometry">
            <Array as="points">
              <mxPoint x="560" y="470" />
              <mxPoint x="560" y="370" />
              <mxPoint x="660" y="370" />
            </Array>
          </mxGeometry>
        </mxCell>
        <mxCell id="ofGlkTPYYoUnQtu4ZhYv-56" value="Use data from SQL" style="whiteSpace=wrap;html=1;rounded=1;glass=0;strokeWidth=1;shadow=0;" vertex="1" parent="WIyWlLk6GJQsqaUBKTNV-1">
          <mxGeometry x="354" y="440" width="126" height="40" as="geometry" />
        </mxCell>
        <mxCell id="ofGlkTPYYoUnQtu4ZhYv-68" value="Add data to cache" style="whiteSpace=wrap;html=1;rounded=1;glass=0;strokeWidth=1;shadow=0;" vertex="1" parent="WIyWlLk6GJQsqaUBKTNV-1">
          <mxGeometry x="360" y="760" width="120" height="50" as="geometry" />
        </mxCell>
        <mxCell id="ofGlkTPYYoUnQtu4ZhYv-70" value="&lt;span style=&quot;font-style: normal; font-weight: 400;&quot;&gt;New session&lt;/span&gt;" style="rounded=0;whiteSpace=wrap;html=1;fontStyle=3" vertex="1" parent="WIyWlLk6GJQsqaUBKTNV-1">
          <mxGeometry x="160" y="50" width="120" height="60" as="geometry" />
        </mxCell>
        <mxCell id="ofGlkTPYYoUnQtu4ZhYv-71" style="edgeStyle=orthogonalEdgeStyle;rounded=0;orthogonalLoop=1;jettySize=auto;html=1;exitX=0.5;exitY=1;exitDx=0;exitDy=0;" edge="1" parent="WIyWlLk6GJQsqaUBKTNV-1" source="ofGlkTPYYoUnQtu4ZhYv-56" target="ofGlkTPYYoUnQtu4ZhYv-56">
          <mxGeometry relative="1" as="geometry" />
        </mxCell>
      </root>
    </mxGraphModel>
  </diagram>
</mxfile>
